<?xml version="1.0" encoding="UTF-8" standalone="no"?>
<!DOCTYPE svg PUBLIC "-//W3C//DTD SVG 1.1//EN"
 "http://www.w3.org/Graphics/SVG/1.1/DTD/svg11.dtd">
<!-- Generated by graphviz version 11.0.0 (20240428.1522)
 -->
<!-- Pages: 1 -->
<svg width="852pt" height="310pt"
 viewBox="0.00 0.00 852.43 309.50" xmlns="http://www.w3.org/2000/svg" xmlns:xlink="http://www.w3.org/1999/xlink">
<g id="graph0" class="graph" transform="scale(1 1) rotate(0) translate(4 305.5)">
<polygon fill="white" stroke="none" points="-4,4 -4,-305.5 848.43,-305.5 848.43,4 -4,4"/>
<!-- 0 -->
<g id="node1" class="node">
<title>c1f1425c1823e48475b0828fca5d324e0c7941dcb52379174bcbedf5f9be3be5</title>
<a xlink:href="/spend/c1f1425c1823e48475b0828fca5d324e0c7941dcb52379174bcbedf5f9be3be5">
<ellipse fill="none" stroke="black" cx="532.93" cy="-283.5" rx="95.88" ry="18"/>
<text text-anchor="middle" x="532.93" y="-278.45" font-family="Times,serif" font-size="14.00">SpendAddress(c1f142)</text>
</a>
</g>
<!-- 1 -->
<g id="node2" class="node">
<title>e8f83f264e29fe515cb343c4dd54d8d4d9db750a6e57437867e33dd30869bead</title>
<a xlink:href="/spend/e8f83f264e29fe515cb343c4dd54d8d4d9db750a6e57437867e33dd30869bead">
<ellipse fill="none" stroke="black" cx="421.93" cy="-195" rx="94.34" ry="18"/>
<text text-anchor="middle" x="421.93" y="-189.95" font-family="Times,serif" font-size="14.00">SpendAddress(e8f83f)</text>
</a>
</g>
<!-- 0&#45;&gt;1 -->
<g id="edge7" class="edge">
<title>0&#45;&gt;1</title>
<path fill="none" stroke="black" d="M457.93,-272.04C444.51,-266.77 432.07,-258.98 423.43,-247.5 418.58,-241.07 416.96,-232.79 416.89,-224.76"/>
<polygon fill="black" stroke="black" points="420.37,-225.15 417.6,-214.93 413.39,-224.65 420.37,-225.15"/>
<text text-anchor="middle" x="522.68" y="-234.2" font-family="Times,serif" font-size="14.00">NanoTokens(900000000000000000)</text>
</g>
<!-- 2 -->
<g id="node3" class="node">
<title>883e2d37b1fdf3f4cc3b889c8c8b904e369a699e32f64294bd3cc771825960af</title>
<a xlink:href="/spend/883e2d37b1fdf3f4cc3b889c8c8b904e369a699e32f64294bd3cc771825960af">
<ellipse fill="none" stroke="black" cx="644.93" cy="-195" rx="97.41" ry="18"/>
<text text-anchor="middle" x="644.93" y="-189.95" font-family="Times,serif" font-size="14.00">SpendAddress(883e2d)</text>
</a>
</g>
<!-- 0&#45;&gt;2 -->
<g id="edge3" class="edge">
<title>0&#45;&gt;2</title>
<path fill="none" stroke="black" d="M588.85,-268.65C601.19,-263.57 613.41,-256.71 622.93,-247.5 629.53,-241.11 634.26,-232.41 637.6,-223.98"/>
<polygon fill="black" stroke="black" points="640.84,-225.31 640.73,-214.71 634.21,-223.06 640.84,-225.31"/>
<text text-anchor="middle" x="733.68" y="-234.2" font-family="Times,serif" font-size="14.00">NanoTokens(388490188500000000)</text>
</g>
<!-- 4 -->
<g id="node5" class="node">
<title>66268051e972c408c5f27777d6ce080d609891194af303a19558da1c76fe271a</title>
<a xlink:href="/spend/66268051e972c408c5f27777d6ce080d609891194af303a19558da1c76fe271a">
<ellipse fill="none" stroke="black" cx="203.93" cy="-106.5" rx="97.93" ry="18"/>
<text text-anchor="middle" x="203.93" y="-101.45" font-family="Times,serif" font-size="14.00">SpendAddress(662680)</text>
</a>
</g>
<!-- 1&#45;&gt;4 -->
<g id="edge1" class="edge">
<title>1&#45;&gt;4</title>
<path fill="none" stroke="black" d="M334.84,-187.78C288.53,-182.77 237.66,-174.01 220.43,-159 213.71,-153.15 209.7,-144.56 207.32,-136.07"/>
<polygon fill="black" stroke="black" points="210.75,-135.38 205.29,-126.3 203.9,-136.8 210.75,-135.38"/>
<text text-anchor="middle" x="320.68" y="-145.7" font-family="Times,serif" font-size="14.00">NanoTokens(899999999000000000)</text>
</g>
<!-- 7 -->
<g id="node8" class="node">
<title>ae3b39145533d45758543c7409f3de7a972b1dddfe3ea18c7825df9bccf73739</title>
<a xlink:href="/spend/ae3b39145533d45758543c7409f3de7a972b1dddfe3ea18c7825df9bccf73739">
<ellipse fill="yellow" stroke="black" cx="426.93" cy="-106.5" rx="96.9" ry="18"/>
<text text-anchor="middle" x="426.93" y="-101.45" font-family="Times,serif" font-size="14.00">SpendAddress(ae3b39)</text>
</a>
</g>
<!-- 1&#45;&gt;7 -->
<g id="edge6" class="edge">
<title>1&#45;&gt;7</title>
<path fill="none" stroke="black" d="M422.91,-176.91C423.59,-165.26 424.5,-149.55 425.28,-136.02"/>
<polygon fill="black" stroke="black" points="428.75,-136.55 425.84,-126.36 421.76,-136.14 428.75,-136.55"/>
<text text-anchor="middle" x="496.68" y="-145.7" font-family="Times,serif" font-size="14.00">NanoTokens(1000000000)</text>
</g>
<!-- 3 -->
<g id="node4" class="node">
<title>964d04e290a8fd960b08d90aba03a5ea01ad88f7af5f917f0433b5e9271f30c1</title>
<a xlink:href="/spend/964d04e290a8fd960b08d90aba03a5ea01ad88f7af5f917f0433b5e9271f30c1">
<ellipse fill="yellow" stroke="black" cx="644.93" cy="-106.5" rx="97.93" ry="18"/>
<text text-anchor="middle" x="644.93" y="-101.45" font-family="Times,serif" font-size="14.00">SpendAddress(964d04)</text>
</a>
</g>
<!-- 2&#45;&gt;3 -->
<g id="edge2" class="edge">
<title>2&#45;&gt;3</title>
<path fill="none" stroke="black" d="M644.93,-176.91C644.93,-165.26 644.93,-149.55 644.93,-136.02"/>
<polygon fill="black" stroke="black" points="648.43,-136.36 644.93,-126.36 641.43,-136.36 648.43,-136.36"/>
<text text-anchor="middle" x="744.68" y="-145.7" font-family="Times,serif" font-size="14.00">NanoTokens(388490188500000000)</text>
</g>
<!-- 5 -->
<g id="node6" class="node">
<title>6391d9cfbc43964587e1ebb049430e9038f3635d22aa407a046c88de55ddd9f3</title>
<a xlink:href="/spend/6391d9cfbc43964587e1ebb049430e9038f3635d22aa407a046c88de55ddd9f3">
<ellipse fill="yellow" stroke="black" cx="97.93" cy="-18" rx="97.93" ry="18"/>
<text text-anchor="middle" x="97.93" y="-12.95" font-family="Times,serif" font-size="14.00">SpendAddress(6391d9)</text>
</a>
</g>
<!-- 4&#45;&gt;5 -->
<g id="edge4" class="edge">
<title>4&#45;&gt;5</title>
<path fill="none" stroke="black" d="M171.26,-89.16C161.86,-83.8 151.88,-77.42 143.43,-70.5 134.24,-62.99 125.33,-53.54 117.86,-44.79"/>
<polygon fill="black" stroke="black" points="120.67,-42.7 111.61,-37.21 115.27,-47.15 120.67,-42.7"/>
<text text-anchor="middle" x="216.68" y="-57.2" font-family="Times,serif" font-size="14.00">NanoTokens(1000000000)</text>
</g>
<!-- 6 -->
<g id="node7" class="node">
<title>0b9e3253b87e1f75d65d53d9579980339b6016a2db3e0b24d82fd8728377d285</title>
<a xlink:href="/spend/0b9e3253b87e1f75d65d53d9579980339b6016a2db3e0b24d82fd8728377d285">
<ellipse fill="yellow" stroke="black" cx="310.93" cy="-18" rx="97.41" ry="18"/>
<text text-anchor="middle" x="310.93" y="-12.95" font-family="Times,serif" font-size="14.00">SpendAddress(0b9e32)</text>
</a>
</g>
<!-- 4&#45;&gt;6 -->
<g id="edge5" class="edge">
<title>4&#45;&gt;6</title>
<path fill="none" stroke="black" d="M257.21,-90.95C268.71,-85.91 280.07,-79.24 288.93,-70.5 295.47,-64.04 300.18,-55.33 303.52,-46.91"/>
<polygon fill="black" stroke="black" points="306.76,-48.24 306.67,-37.65 300.14,-45.99 306.76,-48.24"/>
<text text-anchor="middle" x="399.68" y="-57.2" font-family="Times,serif" font-size="14.00">NanoTokens(899999998000000000)</text>
</g>
</g>
</svg>
